<?xml version="1.0" encoding="UTF-8"?>
<svg id="Layer_2" xmlns="http://www.w3.org/2000/svg" viewBox="0 0 618.61 129.89">
  <defs>
    <style>
      .cls-1 {
        fill: #405397;
      }

      .cls-2 {
        fill: #249e6b;
      }
    </style>
  </defs>
  <g>
    <g>
      <g>
        <path class="cls-1" d="M528.98,128.18h39.11v-13.92h-10.42v-18.76c0-12.7,7.71-25.26,20.84-25.26,9.14,0,11.56,5.99,11.56,14.84v43.1h28.54v-13.92h-10.56v-32.89c0-19.27-8.85-27.69-24.41-27.69-18.27,0-25.98,13.99-26.83,16.27h-.29s.29-1.57.29-3.14v-3.28c0-5.14-3-8.14-9.42-8.14h-19.13v13.56h8.14c2,0,3.14,1.14,3.14,3.14v42.17h-10.56v13.92h0ZM483.02,128.18h39.11v-13.92h-10.42v-58.87h-29.4v13.56h11.27v45.31h-10.56v13.92ZM493.44,42.97h18.27v-16.13h-18.27v16.13ZM440.2,101.49c0,24.41,20.12,27.4,30.4,27.4,3.28,0,5.57-.43,5.57-.43v-14.21h-3.28c-5.14,0-14.56-2.21-14.56-14.62v-30.69h16.56v-13.56h-16.56v-19.84h-17.56v19.84h-11.7v13.56h11.13v32.54h0ZM286.06,102.2c0,19.84,9.28,27.69,23.83,27.69,17.52,0,25.07-12.47,26.41-15.63h.4c-.04.56-.11,1.75-.11,3.08v2.71c0,5.14,3,8.14,9.42,8.14h17.98v-13.92h-6.99c-2.44,0-3.14-.64-3.14-2.63v-56.23h-29.26v13.56h11.13v18.84c0,13.13-7.56,25.98-20.12,25.98-9.14,0-11.42-5.99-11.42-14.7v-43.67h-29.4v13.56h11.28v33.25-.03ZM216.77,86.38l11.99-34.42c1.43-5,1.85-8.85,1.85-8.85h.43s.29,3.85,1.85,8.85l11.89,34.42h-28.02,0ZM180.53,128.18h37.96v-13.92h-10.01l4.73-13.91h35.55l4.29,13.91h-10.01v13.92h38.11v-13.92h-9.26l-30.42-87.41h-21.27l-30.42,87.41h-9.25v13.92h0Z"/>
        <path class="cls-1" d="M367.14,112.34c0,11.84,16.27,17.55,29.54,17.55,16.7,0,30.69-7.42,30.69-22.12s-13.13-18.84-24.26-22.41c-8.14-2.43-15.27-4.85-15.27-10.85,0-4.57,4.85-6.57,10.56-6.57,6.42,0,10.7,2.28,10.7,5.99v4.14h15.56v-9.28c0-10.99-15.7-15.13-26.26-15.13-13.27,0-28.69,5.42-28.69,20.84,0,13.84,12.27,18.84,22.98,22.55,9.7,3.57,16.56,5.14,16.56,11.27,0,4.85-5.14,7.42-12.42,7.42s-14.27-2.57-14.27-7.56v-4.28h-15.41v8.44Z"/>
      </g>
      <path class="cls-1" d="M124.19,47.12C117.53,22.37,111.37,0,90.94,0s-26.59,22.37-33.25,47.12c-4.19,15.58-8.94,33.25-17.69,46.28C30.48,107.58,17.79,114.2.04,114.21c-.02,0-.04.02-.04.04v13.88s.02.04.04.04c26.74,0,42.59-12.7,53.04-29.41,7.72-12.34,12.89-28.1,18.1-48.02,5.96-22.81,10.67-36.78,19.76-36.78s13.8,13.97,19.76,36.78c5.21,19.92,16.03,49.57,41.95,49.6.02,0,.04-.02.04-.04v-13.88s-.02-.04-.04-.04c-15.92-.04-24.28-23.7-28.47-39.27h0Z"/>
      <g>
        <path class="cls-2" d="M60.14.09c-23.81,1.48-27.28,26.04-33.08,47.13-5.59,20.31-10.28,34.98-20.25,38.37-.56.19-3.09.78-6.77.79-.02,0-.04.02-.04.04v13.88s.02.04.04.04c3.51,0,9.78-.26,15.19-3.03,16.03-8.19,21.98-33.46,25.3-46.4C50.22,13.07,57.12,4.23,60.6,1.21c.46-.4.15-1.15-.46-1.11h0Z"/>
        <path class="cls-2" d="M152.65,114.21c-20.1-.01-33.27-10.06-41.62-24.47-8.24-13.61-15.04-39.42-19.47-54.33-.18-.59-1.01-.6-1.21-.02-2.3,6.64-5.35,18-6.28,21.53-.19.71-.18,1.44.03,2.14,2.62,8.75,5.82,18.48,9.77,27.32h-18.61c-.26,0-.49.15-.59.39-1.46,3.7-3.75,8.92-5.58,12.66-.21.42.1.91.57.91h31.75c10.36,15.93,26.71,27.82,51.24,27.83.02,0,.04-.02.04-.04v-13.88s-.02-.04-.04-.04Z"/>
      </g>
    </g>
  </g>
</svg>